<svg xmlns="http://www.w3.org/2000/svg" viewBox="0 0 512 512"><defs><style>.cls-1{fill:#4d4d4d;}.cls-2{fill:#333;}.cls-3{fill:#fff;}</style></defs><g id="レイヤー_1" data-name="レイヤー 1"><rect class="cls-1" width="512" height="512" rx="32"/><rect class="cls-2" width="128" height="128" rx="32"/><rect class="cls-1" x="16" y="16" width="96" height="96" rx="32"/><rect class="cls-2" x="32" y="32" width="64" height="64" rx="32"/><rect class="cls-2" y="384" width="128" height="128" rx="32"/><rect class="cls-1" x="16" y="400" width="96" height="96" rx="32"/><rect class="cls-2" x="32" y="416" width="64" height="64" rx="32"/><rect class="cls-2" x="384" width="128" height="128" rx="32"/><rect class="cls-1" x="400" y="16" width="96" height="96" rx="32"/><rect class="cls-2" x="416" y="32" width="64" height="64" rx="32"/></g><g id="レイヤー_2" data-name="レイヤー 2"><path class="cls-3" d="M420.42,162.89a62.12,62.12,0,0,0-62.16,48.35,61.93,61.93,0,0,0-115.11-3.77,62.1,62.1,0,0,0-56.79-37.25H135.78a11.49,11.49,0,0,0-11.44,11.44v49.81c0,16.75-13,31-29.79,31.74a31,31,0,0,1-32.16-29.78V185.85A15.46,15.46,0,0,0,46.9,170.36h0a15.46,15.46,0,0,0-15.49,15.49h0v45.27c0,33.84,26.65,62.3,60.49,63.07a62,62,0,0,0,63.41-60.56V212.71a11.46,11.46,0,0,1,11.45-11.45h18.83c16.75,0,31,13.05,31.75,29.86a31,31,0,0,1-29.86,32.16H163.69a15.79,15.79,0,0,0-16,14.38,15.46,15.46,0,0,0,14.44,16.46h24.21a62.16,62.16,0,0,0,56.86-37.25,61.92,61.92,0,0,0,113.57,0v20.79a15.79,15.79,0,0,0,14.45,16,15.51,15.51,0,0,0,16.46-14.44V225.54c0-16.81,13.05-31.11,29.79-31.74a31,31,0,0,1,32.16,29.86v54.07a15.79,15.79,0,0,0,14.44,16,15.47,15.47,0,0,0,16.47-14.44,6,6,0,0,0,0-1.12V225.82C480.63,192.13,454.11,163.8,420.42,162.89ZM299.94,263.15a31,31,0,1,1,31-31h0A31,31,0,0,1,299.94,263.15Z"/><path class="cls-3" d="M256.81,355.88a49.65,49.65,0,0,1-1.25,11.37,43.07,43.07,0,0,1-3.56,9.91,37.28,37.28,0,0,1-5.53,8.09,33.67,33.67,0,0,1-7.09,6v.25q5.18-.81,9.81-1.25a78.73,78.73,0,0,1,9.37-.31v9.19l-6.37-.41q-3.44-.23-7.94-.22-3.37,0-6.81.19t-6.82.44c-2.24.16-4.45.31-6.62.43s-4.23.19-6.19.19a42.18,42.18,0,0,1-16.65-3.12,34.58,34.58,0,0,1-12.41-8.78,38.8,38.8,0,0,1-7.75-13.6,54.31,54.31,0,0,1-2.69-17.5,53,53,0,0,1,2.78-17.53A40.72,40.72,0,0,1,189,325.5a35.58,35.58,0,0,1,12.34-9,39.75,39.75,0,0,1,16.25-3.22A40.4,40.4,0,0,1,234,316.53a35.7,35.7,0,0,1,12.35,8.91,39.24,39.24,0,0,1,7.74,13.5A51.52,51.52,0,0,1,256.81,355.88Zm-10.75.87a46.42,46.42,0,0,0-2.18-14.87,30.73,30.73,0,0,0-6-10.75,25.15,25.15,0,0,0-9.06-6.53,29.46,29.46,0,0,0-22.44,0,25.15,25.15,0,0,0-9.06,6.53,30.87,30.87,0,0,0-6,10.75,46.14,46.14,0,0,0-2.19,14.87,45.31,45.31,0,0,0,2.22,14.85,31.23,31.23,0,0,0,6.06,10.71,24.84,24.84,0,0,0,9.07,6.5A28.82,28.82,0,0,0,217.69,391a28.18,28.18,0,0,0,11.15-2.19,24.85,24.85,0,0,0,9-6.5,30.72,30.72,0,0,0,6-10.71A46.17,46.17,0,0,0,246.06,356.75Z"/><path class="cls-3" d="M286.25,363.88V398.5H276.06V314.88h21.67a91.1,91.1,0,0,1,9.33.4,44.21,44.21,0,0,1,7,1.28q8.75,2.38,13.36,8.1t4.62,14.28a24,24,0,0,1-1.62,9.06,20.94,20.94,0,0,1-4.56,6.94,23.92,23.92,0,0,1-7,4.81,37,37,0,0,1-9.09,2.75v.25L334.5,398.5H324.31l-25.75-34.62Zm0-39.82v30.63h10.06c3.13,0,5.79-.1,8-.31a29.72,29.72,0,0,0,5.94-1.13,16.27,16.27,0,0,0,8.19-5.19,14.38,14.38,0,0,0,2.87-9.31,13.47,13.47,0,0,0-2.75-8.65,14.86,14.86,0,0,0-7.44-4.72,28.18,28.18,0,0,0-5.37-1q-3.12-.31-7.94-.32Z"/></g></svg>